<?xml version="1.0" standalone="yes"?>

<svg version="1.1" viewBox="0.0 0.0 563.5774278215223 468.95800524934384" fill="none" stroke="none" stroke-linecap="square" stroke-miterlimit="10" xmlns="http://www.w3.org/2000/svg" xmlns:xlink="http://www.w3.org/1999/xlink"><clipPath id="p.0"><path d="m0 0l563.57745 0l0 468.958l-563.57745 0l0 -468.958z" clip-rule="nonzero"></path></clipPath><g clip-path="url(#p.0)"><path fill="#000000" fill-opacity="0.0" d="m0 0l563.57745 0l0 468.958l-563.57745 0z" fill-rule="evenodd"></path><path fill="#f5f5f5" d="m50.212597 99.708694l0 0c0 -37.216908 30.170269 -67.38718 67.38718 -67.38718l328.37527 0c17.872192 0 35.01239 7.099701 47.649933 19.737247c12.637543 12.637543 19.737213 29.77774 19.737213 47.649925l0 269.5406c0 37.21692 -30.170258 67.38718 -67.387146 67.38718l-328.37527 0c-37.216904 0 -67.38718 -30.170258 -67.38718 -67.38718z" fill-rule="evenodd"></path><path stroke="#000000" stroke-width="24.0" stroke-linejoin="round" stroke-linecap="butt" d="m50.212597 99.708694l0 0c0 -37.216908 30.170269 -67.38718 67.38718 -67.38718l328.37527 0c17.872192 0 35.01239 7.099701 47.649933 19.737247c12.637543 12.637543 19.737213 29.77774 19.737213 47.649925l0 269.5406c0 37.21692 -30.170258 67.38718 -67.387146 67.38718l-328.37527 0c-37.216904 0 -67.38718 -30.170258 -67.38718 -67.38718z" fill-rule="evenodd"></path><path fill="#000000" d="m203.83315 368.879l0 -265.1875l63.20311 0q46.4375 0 72.109375 29.062492q25.6875 29.046875 25.6875 81.671875l0 44.45314q0 52.625 -26.046875 81.3125q-26.046875 28.6875 -75.578125 28.6875l-59.374985 0zm33.328125 -236.40627l0 207.81252l26.781235 0q35.140625 0 51.34375 -20.125q16.21875 -20.125 16.578125 -59.640625l0 -47.000015q0 -41.890625 -16.125 -61.46875q-16.109375 -19.578125 -48.703125 -19.578125l-29.874985 0z" fill-rule="nonzero"></path></g></svg>

